<svg version="1.1" viewBox="0.0 0.0 960.0 540.0" fill="none" stroke="none" stroke-linecap="square" stroke-miterlimit="10" xmlns:xlink="http://www.w3.org/1999/xlink" xmlns="http://www.w3.org/2000/svg"><clipPath id="g1f068f94b8d_0_62.0"><path d="m0 0l960.0 0l0 540.0l-960.0 0l0 -540.0z" clip-rule="nonzero"/></clipPath><g clip-path="url(#g1f068f94b8d_0_62.0)"><path fill="#ffffff" d="m0 0l960.0 0l0 540.0l-960.0 0z" fill-rule="evenodd"/><path fill="#000000" fill-opacity="0.0" d="m32.72441 46.721786l894.55115 0l0 74.267715l-894.55115 0z" fill-rule="evenodd"/><path fill="#ef6c00" d="m44.146286 66.959404l5.4375 0l0 30.234375l-5.4375 0l0 -30.234375zm20.419281 30.234375l0 -13.125q0 -2.375 -0.5625 -3.328125q-0.5625 -0.953125 -1.890625 -0.953125q-1.125 0 -1.953125 0.703125q-0.8125 0.6875 -1.15625 1.71875l0 14.984375l-5.140625 0l0 -21.59375l4.09375 0l0.609375 2.5l0.125 0q0.78125 -1.25 2.125 -2.125q1.34375 -0.890625 3.5 -0.890625q1.296875 0 2.3125 0.390625q1.015625 0.390625 1.703125 1.28125q0.6875 0.875 1.03125 2.375q0.34375 1.484375 0.34375 3.6875l0 14.375l-5.140625 0zm9.109985 -21.59375l5.140625 0l0 21.59375l-5.140625 0l0 -21.59375zm-0.59375 -6.09375q0 -1.296875 0.8125 -2.125q0.828125 -0.84375 2.34375 -0.84375q1.5 0 2.40625 0.828125q0.90625 0.8125 0.90625 2.140625q0 1.34375 -0.90625 2.125q-0.90625 0.765625 -2.40625 0.765625q-1.515625 0 -2.34375 -0.796875q-0.8125 -0.796875 -0.8125 -2.09375zm8.201584 6.09375l2.375 0l0 -4.0625l5.140625 -1.59375l0 5.65625l4.1875 0l0 4.578125l-4.1875 0l0 9.421875q0 1.84375 0.359375 2.625q0.375 0.78125 1.328125 0.78125q0.640625 0 1.15625 -0.125q0.53125 -0.140625 1.125 -0.390625l0.65625 4.09375q-0.953125 0.484375 -2.203125 0.796875q-1.25 0.328125 -2.640625 0.328125q-2.453125 0 -3.6875 -1.421875q-1.234375 -1.421875 -1.234375 -4.796875l0 -11.3125l-2.375 0l0 -4.578125zm14.676971 0l5.140625 0l0 21.59375l-5.140625 0l0 -21.59375zm-0.59375 -6.09375q0 -1.296875 0.8125 -2.125q0.828125 -0.84375 2.34375 -0.84375q1.5 0 2.40625 0.828125q0.90625 0.8125 0.90625 2.140625q0 1.34375 -0.90625 2.125q-0.90625 0.765625 -2.40625 0.765625q-1.515625 0 -2.34375 -0.796875q-0.8125 -0.796875 -0.8125 -2.09375zm9.935959 7.390625q1.296875 -0.78125 3.234375 -1.25q1.9375 -0.484375 4.40625 -0.484375q3.671875 0 5.109375 1.90625q1.453125 1.90625 1.453125 5.390625q0 2.03125 -0.109375 4.0q-0.109375 1.96875 -0.15625 3.84375q-0.03125 1.875 0.0625 3.625q0.109375 1.75 0.59375 3.3125l-4.1875 0l-0.828125 -2.640625l-0.171875 0q-0.6875 1.25 -1.9375 2.078125q-1.25 0.8125 -3.15625 0.8125q-2.546875 0 -4.015625 -1.703125q-1.46875 -1.703125 -1.46875 -4.546875q0 -3.890625 2.765625 -5.53125q2.765625 -1.640625 7.46875 -1.390625q0.21875 -2.5 -0.328125 -3.625q-0.53125 -1.125 -2.3125 -1.125q-1.28125 0 -2.671875 0.3125q-1.375 0.296875 -2.453125 0.859375l-1.296875 -3.84375zm6.171875 16.1875q1.15625 0 1.890625 -0.578125q0.734375 -0.578125 1.09375 -1.265625l0 -3.59375q-1.0 -0.125 -1.90625 -0.03125q-0.90625 0.078125 -1.609375 0.390625q-0.6875 0.296875 -1.09375 0.875q-0.40625 0.578125 -0.40625 1.484375q0 1.34375 0.53125 2.03125q0.546875 0.6875 1.5 0.6875zm16.836487 -2.890625q0 1.515625 0.296875 2.171875q0.3125 0.640625 1.0 0.640625q0.390625 0 0.796875 -0.078125q0.421875 -0.09375 0.9375 -0.3125l0.46875 4.140625q-0.515625 0.34375 -1.765625 0.640625q-1.25 0.3125 -2.546875 0.3125q-2.15625 0 -3.25 -1.078125q-1.078125 -1.078125 -1.078125 -3.671875l0 -26.0l5.140625 0l0 23.234375zm14.207428 -23.234375q0.78125 -0.125 1.75 -0.1875q0.984375 -0.0625 1.984375 -0.125q1.015625 -0.078125 1.96875 -0.09375q0.953125 -0.015625 1.6875 -0.015625q3.578125 0 5.96875 1.109375q2.40625 1.09375 3.84375 3.109375q1.453125 2.0 2.0625 4.8125q0.609375 2.796875 0.609375 6.25q0 3.15625 -0.59375 6.03125q-0.578125 2.859375 -2.046875 5.046875q-1.46875 2.1875 -3.96875 3.484375q-2.5 1.28125 -6.3125 1.28125q-0.5625 0 -1.515625 -0.046875q-0.9375 -0.03125 -1.984375 -0.09375q-1.03125 -0.0625 -1.984375 -0.140625q-0.9375 -0.0625 -1.46875 -0.140625l0 -30.28125zm7.953125 4.578125q-0.6875 0 -1.40625 0.03125q-0.703125 0.015625 -1.09375 0.09375l0 20.828125q0.125 0.03125 0.4375 0.0625q0.328125 0.015625 0.6875 0.046875q0.375 0.015625 0.703125 0.046875q0.328125 0.015625 0.453125 0.015625q1.953125 0 3.203125 -0.90625q1.25 -0.90625 1.953125 -2.421875q0.71875 -1.515625 1.0 -3.46875q0.28125 -1.96875 0.28125 -4.140625q0 -1.984375 -0.234375 -3.828125q-0.234375 -1.859375 -0.90625 -3.265625q-0.671875 -1.40625 -1.90625 -2.25q-1.234375 -0.84375 -3.171875 -0.84375zm15.121002 5.359375q1.296875 -0.78125 3.234375 -1.25q1.9375 -0.484375 4.40625 -0.484375q3.671875 0 5.109375 1.90625q1.453125 1.90625 1.453125 5.390625q0 2.03125 -0.109375 4.0q-0.109375 1.96875 -0.15625 3.84375q-0.03125 1.875 0.0625 3.625q0.109375 1.75 0.59375 3.3125l-4.1875 0l-0.828125 -2.640625l-0.171875 0q-0.6875 1.25 -1.9375 2.078125q-1.25 0.8125 -3.15625 0.8125q-2.546875 0 -4.015625 -1.703125q-1.46875 -1.703125 -1.46875 -4.546875q0 -3.890625 2.765625 -5.53125q2.765625 -1.640625 7.46875 -1.390625q0.21875 -2.5 -0.328125 -3.625q-0.53125 -1.125 -2.3125 -1.125q-1.28125 0 -2.671875 0.3125q-1.375 0.296875 -2.453125 0.859375l-1.296875 -3.84375zm6.171875 16.1875q1.15625 0 1.890625 -0.578125q0.734375 -0.578125 1.09375 -1.265625l0 -3.59375q-1.0 -0.125 -1.90625 -0.03125q-0.90625 0.078125 -1.609375 0.390625q-0.6875 0.296875 -1.09375 0.875q-0.40625 0.578125 -0.40625 1.484375q0 1.34375 0.53125 2.03125q0.546875 0.6875 1.5 0.6875zm9.930237 -17.484375l2.375 0l0 -4.0625l5.140625 -1.59375l0 5.65625l4.1875 0l0 4.578125l-4.1875 0l0 9.421875q0 1.84375 0.359375 2.625q0.375 0.78125 1.328125 0.78125q0.640625 0 1.15625 -0.125q0.53125 -0.140625 1.125 -0.390625l0.65625 4.09375q-0.953125 0.484375 -2.203125 0.796875q-1.25 0.328125 -2.640625 0.328125q-2.453125 0 -3.6875 -1.421875q-1.234375 -1.421875 -1.234375 -4.796875l0 -11.3125l-2.375 0l0 -4.578125zm14.301971 1.296875q1.296875 -0.78125 3.234375 -1.25q1.9375 -0.484375 4.40625 -0.484375q3.671875 0 5.109375 1.90625q1.453125 1.90625 1.453125 5.390625q0 2.03125 -0.109375 4.0q-0.109375 1.96875 -0.15625 3.84375q-0.03125 1.875 0.0625 3.625q0.109375 1.75 0.59375 3.3125l-4.1875 0l-0.828125 -2.640625l-0.171875 0q-0.6875 1.25 -1.9375 2.078125q-1.25 0.8125 -3.15625 0.8125q-2.546875 0 -4.015625 -1.703125q-1.46875 -1.703125 -1.46875 -4.546875q0 -3.890625 2.765625 -5.53125q2.765625 -1.640625 7.46875 -1.390625q0.21875 -2.5 -0.328125 -3.625q-0.53125 -1.125 -2.3125 -1.125q-1.28125 0 -2.671875 0.3125q-1.375 0.296875 -2.453125 0.859375l-1.296875 -3.84375zm6.171875 16.1875q1.15625 0 1.890625 -0.578125q0.734375 -0.578125 1.09375 -1.265625l0 -3.59375q-1.0 -0.125 -1.90625 -0.03125q-0.90625 0.078125 -1.609375 0.390625q-0.6875 0.296875 -1.09375 0.875q-0.40625 0.578125 -0.40625 1.484375q0 1.34375 0.53125 2.03125q0.546875 0.6875 1.5 0.6875zm31.314896 -2.71875l-7.125 0l-1.78125 6.828125l-5.390625 0l8.765625 -30.453125l4.265625 0l8.8125 30.453125l-5.703125 0l-1.84375 -6.828125zm-5.96875 -4.484375l5.015625 0l-1.734375 -7.046875l-0.6875 -4.75l-0.171875 0l-0.734375 4.796875l-1.6875 7.0zm25.996368 11.3125l0 -13.125q0 -2.375 -0.5625 -3.328125q-0.5625 -0.953125 -1.890625 -0.953125q-1.125 0 -1.953125 0.703125q-0.8125 0.6875 -1.15625 1.71875l0 14.984375l-5.140625 0l0 -21.59375l4.09375 0l0.609375 2.5l0.125 0q0.78125 -1.25 2.125 -2.125q1.34375 -0.890625 3.5 -0.890625q1.296875 0 2.3125 0.390625q1.015625 0.390625 1.703125 1.28125q0.6875 0.875 1.03125 2.375q0.34375 1.484375 0.34375 3.6875l0 14.375l-5.140625 0zm8.734985 -20.296875q1.296875 -0.78125 3.234375 -1.25q1.9375 -0.484375 4.40625 -0.484375q3.671875 0 5.109375 1.90625q1.453125 1.90625 1.453125 5.390625q0 2.03125 -0.109375 4.0q-0.109375 1.96875 -0.15625 3.84375q-0.03125 1.875 0.0625 3.625q0.109375 1.75 0.59375 3.3125l-4.1875 0l-0.828125 -2.640625l-0.171875 0q-0.6875 1.25 -1.9375 2.078125q-1.25 0.8125 -3.15625 0.8125q-2.546875 0 -4.015625 -1.703125q-1.46875 -1.703125 -1.46875 -4.546875q0 -3.890625 2.765625 -5.53125q2.765625 -1.640625 7.46875 -1.390625q0.21875 -2.5 -0.328125 -3.625q-0.53125 -1.125 -2.3125 -1.125q-1.28125 0 -2.671875 0.3125q-1.375 0.296875 -2.453125 0.859375l-1.296875 -3.84375zm6.171875 16.1875q1.15625 0 1.890625 -0.578125q0.734375 -0.578125 1.09375 -1.265625l0 -3.59375q-1.0 -0.125 -1.90625 -0.03125q-0.90625 0.078125 -1.609375 0.390625q-0.6875 0.296875 -1.09375 0.875q-0.40625 0.578125 -0.40625 1.484375q0 1.34375 0.53125 2.03125q0.546875 0.6875 1.5 0.6875zm16.836487 -2.890625q0 1.515625 0.296875 2.171875q0.3125 0.640625 1.0 0.640625q0.390625 0 0.796875 -0.078125q0.421875 -0.09375 0.9375 -0.3125l0.46875 4.140625q-0.515625 0.34375 -1.765625 0.640625q-1.25 0.3125 -2.546875 0.3125q-2.15625 0 -3.25 -1.078125q-1.078125 -1.078125 -1.078125 -3.671875l0 -26.0l5.140625 0l0 23.234375zm12.182068 -2.453125l0.5625 3.359375l0.21875 0l0.390625 -3.40625l2.5 -12.09375l5.265625 0l-5.390625 19.484375q-0.734375 2.546875 -1.390625 4.5625q-0.640625 2.03125 -1.375 3.453125q-0.734375 1.4375 -1.671875 2.1875q-0.921875 0.765625 -2.21875 0.765625q-0.90625 0 -1.75 -0.15625q-0.84375 -0.15625 -1.4375 -0.5l0.859375 -4.40625q0.5625 0.21875 1.140625 0.1875q0.578125 -0.015625 1.078125 -0.421875q0.5 -0.40625 0.890625 -1.28125q0.390625 -0.859375 0.640625 -2.28125l-7.5155945 -21.59375l6.1874695 0l3.015625 12.140625zm17.618835 3.703125q0 -0.90625 -0.578125 -1.53125q-0.578125 -0.625 -1.5 -1.15625q-0.90625 -0.546875 -1.921875 -1.109375q-1.0 -0.5625 -1.921875 -1.375q-0.90625 -0.828125 -1.484375 -1.984375q-0.578125 -1.171875 -0.578125 -2.9375q0 -3.03125 1.640625 -4.671875q1.640625 -1.640625 4.828125 -1.640625q1.90625 0 3.59375 0.421875q1.6875 0.40625 2.671875 1.0l-1.203125 3.984375q-0.828125 -0.359375 -2.0 -0.671875q-1.15625 -0.328125 -2.28125 -0.328125q-2.109375 0 -2.109375 1.765625q0 0.828125 0.578125 1.375q0.578125 0.53125 1.484375 1.046875q0.90625 0.515625 1.921875 1.078125q1.015625 0.5625 1.921875 1.40625q0.90625 0.84375 1.484375 2.0625q0.59375 1.203125 0.59375 2.96875q0 2.984375 -1.8125 4.796875q-1.8125 1.8125 -5.390625 1.8125q-1.78125 0 -3.484375 -0.4375q-1.703125 -0.421875 -2.734375 -1.125l1.421875 -4.140625q0.90625 0.515625 2.09375 0.90625q1.1875 0.390625 2.484375 0.390625q0.984375 0 1.625 -0.453125q0.65625 -0.453125 0.65625 -1.453125zm8.287537 -15.84375l5.140625 0l0 21.59375l-5.140625 0l0 -21.59375zm-0.59375 -6.09375q0 -1.296875 0.8125 -2.125q0.828125 -0.84375 2.34375 -0.84375q1.5 0 2.40625 0.828125q0.90625 0.8125 0.90625 2.140625q0 1.34375 -0.90625 2.125q-0.90625 0.765625 -2.40625 0.765625q-1.515625 0 -2.34375 -0.796875q-0.8125 -0.796875 -0.8125 -2.09375zm17.1391 21.9375q0 -0.90625 -0.578125 -1.53125q-0.578125 -0.625 -1.5 -1.15625q-0.90625 -0.546875 -1.921875 -1.109375q-1.0 -0.5625 -1.921875 -1.375q-0.90625 -0.828125 -1.484375 -1.984375q-0.578125 -1.171875 -0.578125 -2.9375q0 -3.03125 1.640625 -4.671875q1.640625 -1.640625 4.828125 -1.640625q1.90625 0 3.59375 0.421875q1.6875 0.40625 2.671875 1.0l-1.203125 3.984375q-0.828125 -0.359375 -2.0 -0.671875q-1.15625 -0.328125 -2.28125 -0.328125q-2.109375 0 -2.109375 1.765625q0 0.828125 0.578125 1.375q0.578125 0.53125 1.484375 1.046875q0.90625 0.515625 1.921875 1.078125q1.015625 0.5625 1.921875 1.40625q0.90625 0.84375 1.484375 2.0625q0.59375 1.203125 0.59375 2.96875q0 2.984375 -1.8125 4.796875q-1.8125 1.8125 -5.390625 1.8125q-1.78125 0 -3.484375 -0.4375q-1.703125 -0.421875 -2.734375 -1.125l1.421875 -4.140625q0.90625 0.515625 2.09375 0.90625q1.1875 0.390625 2.484375 0.390625q0.984375 0 1.625 -0.453125q0.65625 -0.453125 0.65625 -1.453125z" fill-rule="nonzero"/><path fill="#000000" fill-opacity="0.0" d="m32.72441 132.93176l419.937 0l0 346.74014l-419.937 0z" fill-rule="evenodd"/><path fill="#000000" fill-opacity="0.0" d="m507.3386 132.93176l419.93698 0l0 346.74014l-419.93698 0z" fill-rule="evenodd"/></g></svg>